<svg width="202" height="121" xmlns="http://www.w3.org/2000/svg"><g transform="translate(1 2)" fill="none" fill-rule="evenodd"><ellipse fill="#EDEEF0" cx="74.357" cy="77.502" rx="36.581" ry="7.438"/><path d="M126.642 115.073c13.694 2.176 25.365.333 26.067-4.117.703-4.45-9.83-9.822-23.523-11.999-13.695-2.176-24.718 1.208-25.42 5.659-.703 4.45 9.182 8.28 22.876 10.457z" fill="#EDEEF0"/><path stroke="#79818D" stroke-width="1.913" stroke-linecap="round" stroke-linejoin="round" d="M0 60.586h200m-21.399 7.558h14.824"/><g transform="translate(58.1)"><path d="M.956 25.562 0 52.556c9.404 5.999 23.152 8.878 41.243 8.638 18.092-.24 32.238-3.16 42.439-8.758V24.003c-4.941 5.199-19.087 7.758-42.439 7.678-23.351-.08-36.78-2.12-40.287-6.119z" fill="#EDEEF0"/><path d="M.24 6.598c5.817 2.64 19.246 4.28 40.286 4.92 21.04.64 35.505-1 43.395-4.92v17.876c-10.121 4.96-24.586 7.159-43.395 6.599-18.809-.56-32.237-2.76-40.287-6.599V6.598zm83.681 72.104c-5.42 6.318-19.844 9.477-43.275 9.477-23.431 0-36.9-3.599-40.407-10.797V51.948c8.448 5.599 22.395 8.438 41.841 8.518 19.446.08 33.393-2.76 41.841-8.518v26.754z" fill="#DCDEE1"/><ellipse stroke="#79818D" stroke-width="1.913" fill="#EDEEF0" stroke-linejoin="round" cx="42.08" cy="5.279" rx="41.841" ry="6.235"/><path d="M83.921 23.395c0 4.056-19.26 7.678-41.84 7.678C19.5 31.073.238 27.45.238 23.395m83.683 25.913c0 5.831-19.26 11.038-41.84 11.038C19.5 60.346.238 55.139.238 49.308m83.683 27.834c0 5.83-19.26 11.037-41.84 11.037C19.5 88.18.238 82.973.238 77.142" stroke="#79818D" stroke-width="1.913" stroke-linejoin="round"/><path stroke="#79818D" stroke-width="1.913" fill="#D8D8D8" stroke-linecap="round" stroke-linejoin="round" d="M.239 77.022V5.279m83.682 71.743V5.279"/></g><path d="M129.588 36.232c8.182 1.12 14.717 1.68 19.605 1.68s11.981-.56 21.28-1.68c-.62 7.64-1.936 13.04-3.946 16.196-3.015 4.734-12.53 9.916-13.628 11.397-.733.988-.095 2.507 1.913 4.559 5.67 4.462 9.376 8.261 11.117 11.397 1.742 3.136 3.257 8.735 4.543 16.796-9.324-.88-16.258-1.32-20.8-1.32-4.543 0-11.238.44-20.084 1.32.76-5.313 1.437-8.952 2.032-10.917 1.654-5.46 4.409-9.02 13.27-17.276 1.132-1.056 1.97-2.255 2.51-3.6-1.403-1.718-2.519-2.918-3.347-3.598-4.964-4.076-8.972-7.045-10.64-9.718-2.085-3.343-3.36-8.422-3.825-15.236z" stroke="#79818D" stroke-width=".5" fill="#FAFAFA"/><path stroke="#979797" stroke-width="1.913" stroke-linecap="round" stroke-linejoin="round" d="M122.654 99.817v6.718m54.991-6.718v6.718"/><path d="M122.654 110.374V99.937c10.88.88 20.024 1.32 27.433 1.32 8.268 0 17.454-.44 27.558-1.32v10.437c-3.807 3.2-12.993 4.8-27.558 4.8s-23.71-1.6-27.433-4.8z" stroke="#79818D" stroke-width="1.913" fill="#DCDEE1" stroke-linejoin="round"/><path d="M122.654 99.817c3.724-3.2 12.868-4.8 27.433-4.8s23.751 1.6 27.558 4.8c-3.807 3.199-12.993 4.799-27.558 4.799s-23.71-1.6-27.433-4.8z" stroke="#79818D" stroke-width="1.913" fill="#FAFAFA" stroke-linejoin="round"/><g stroke="#79818D"><path d="M150.15 80.861c-6.695 1.2-11.078 2.8-13.15 4.799-2.073 2-3.467 6.718-4.185 14.157l16.378 1.08 17.095-.96c-.558-8.158-1.275-13.237-2.152-15.237-.876-2-5.539-3.279-13.987-3.839z" stroke-width=".5" fill="#7E8BFF"/><path d="M149.93 100.896c-10.122 0-16.896-.72-20.323-2.16-.16-5.278.677-10.477 2.51-15.595 2.75-7.679 10.042-12.238 11.477-13.557 1.434-1.32 3.825-2.52 3.825-4.8" stroke-width="1.913" stroke-linecap="round" stroke-linejoin="round"/><path d="M149.93 34.072c-10.122 0-16.896.612-20.323 1.837-.16 4.49.677 8.91 2.51 13.264 2.75 6.53 10.042 10.408 11.477 11.53 1.434 1.123 3.825 2.143 3.825 4.082m2.731 36.111c10.121 0 16.895-.72 20.322-2.16.16-5.278-.677-10.477-2.51-15.595-2.75-7.679-10.042-12.238-11.477-13.557-1.434-1.32-3.825-2.52-3.825-4.8" stroke-width="1.913" stroke-linecap="round" stroke-linejoin="round"/><path d="M150.15 34.072c10.121 0 16.895.612 20.322 1.837.16 4.49-.677 8.91-2.51 13.264-2.75 6.53-10.042 10.408-11.477 11.53-1.434 1.123-3.825 2.143-3.825 4.082" stroke-width="1.913" stroke-linecap="round" stroke-linejoin="round"/></g><path stroke="#979797" stroke-width="1.913" stroke-linecap="round" stroke-linejoin="round" d="M122.654 26.394v6.718m54.991-6.718v6.718"/><path d="M122.654 33.112v-6.118c10.88.88 20.024 1.32 27.433 1.32 8.268 0 17.454-.44 27.558-1.32v6.118c-3.807 3.2-12.993 4.8-27.558 4.8s-23.71-1.6-27.433-4.8z" stroke="#79818D" stroke-width="1.913" fill="#DCDEE1" stroke-linejoin="round"/><path d="M122.654 26.394c3.724-3.2 12.868-4.799 27.433-4.799s23.751 1.6 27.558 4.799c-3.807 3.2-12.993 4.799-27.558 4.799s-23.71-1.6-27.433-4.8z" stroke="#79818D" stroke-width="1.913" fill="#FAFAFA" stroke-linejoin="round"/><path d="M137.597 50.268c-.08 1.04 1.116 2.52 3.587 4.44 1.64 1.273 5.251 3.548 7.65 5.518.877.72 1.315 1.76 1.315 3.12 0-1.84 1.555-3.72 4.663-5.64 4.662-2.879 4.9-4.44 3.825-5.278-2.152-1.68-9.395-1.73-20.203-3-.59-.069-.869.211-.837.84z" stroke="#79818D" stroke-width="1.913" fill="#7E8BFF" stroke-linejoin="round"/><path d="M139.988 49.668c10.506.956 16.603 1.715 18.29 2.28 1.688.564.97 1.604-2.151 3.12-6.316-.46-10.46-1.02-12.433-1.68-1.972-.66-3.208-1.9-3.706-3.72z" fill="#A5AEFF"/><path d="M137.836 49.908c2.925 2.026 5.755 3.306 8.488 3.84 4.304.84 6.455 1.68 11.715 1.32m-7.889 8.277v17.396" stroke="#79818D" stroke-width="1.913" stroke-linecap="round" stroke-linejoin="round"/><path d="M137.597 50.268c-.08 1.04 1.116 2.52 3.587 4.44 1.64 1.273 5.251 3.548 7.65 5.518.877.72 1.315 1.76 1.315 3.12 0-1.84 1.555-3.72 4.663-5.64 4.662-2.879 4.9-4.44 3.825-5.278-2.152-1.68-9.395-1.73-20.203-3-.59-.069-.869.211-.837.84z" stroke="#79818D" stroke-width="1.913" stroke-linejoin="round"/><path d="M162.874 83.02c-1.262-.6-3.407-.823-5.904-1.08-9.612-.985-21.887 1.779-22.6 6.36-.598 3.838 9.683 3.479 20.442 1.08 10.759-2.4 9.324-5.76 8.062-6.36z" stroke="#79818D" stroke-width="1.913" fill="#A5AEFF" stroke-linecap="round" stroke-linejoin="round"/><path d="M144.053 85.66c3.506-5.839 6.774-6.359 9.802-1.56" stroke="#79818D" stroke-width="1.913" fill="#A5AEFF" stroke-linecap="round" stroke-linejoin="round"/><path d="M134.37 88.18c-.505 2.636-.824 4.515-.957 5.638-.37 3.113-.359 5.24-.359 5.759m30.724-15.597c1.203 3.045 1.92 5.284 2.151 6.719.555 3.44.408 6.732.36 8.878" stroke="#79818D" stroke-width="1.913" stroke-linecap="round" stroke-linejoin="round"/></g></svg>