<svg viewBox="0 0 19 14" xmlns="http://www.w3.org/2000/svg">
    <path d="M15.54 1.16A14.852 14.852 0 0 0 11.843.002a.056.056 0 0 0-.06.028c-.159.288-.336.662-.46.957a13.673 13.673 0 0 0-4.151 0 9.73 9.73 0 0 0-.468-.957.058.058 0 0 0-.06-.028 14.812 14.812 0 0 0-3.696 1.16.053.053 0 0 0-.024.02C.569 4.74-.076 8.21.24 11.637c.001.017.01.033.023.043A14.995 14.995 0 0 0 4.8 13.997a.058.058 0 0 0 .064-.02c.35-.483.66-.992.928-1.527a.058.058 0 0 0-.032-.08 9.87 9.87 0 0 1-1.416-.684.06.06 0 0 1-.006-.097c.095-.072.19-.148.281-.223a.056.056 0 0 1 .059-.008c2.972 1.372 6.19 1.372 9.127 0a.055.055 0 0 1 .06.007c.09.076.185.152.281.224a.06.06 0 0 1-.005.097 9.263 9.263 0 0 1-1.417.683.059.059 0 0 0-.03.081c.272.534.583 1.043.926 1.526.014.02.04.029.064.021a14.944 14.944 0 0 0 4.542-2.318.059.059 0 0 0 .023-.042c.38-3.962-.634-7.404-2.685-10.455a.046.046 0 0 0-.023-.021zM6.235 9.55c-.895 0-1.633-.831-1.633-1.852 0-1.02.723-1.851 1.633-1.851.916 0 1.646.838 1.632 1.851 0 1.02-.723 1.851-1.632 1.851zm6.034 0c-.895 0-1.632-.831-1.632-1.852 0-1.02.723-1.851 1.632-1.851.916 0 1.646.838 1.632 1.851 0 1.02-.716 1.851-1.632 1.851z" fill="currentColor" fill-rule="nonzero"/>
</svg>
