<svg viewBox="0 0 18 18" fill="none" xmlns="http://www.w3.org/2000/svg">
<path fill-rule="evenodd" clip-rule="evenodd" d="M3.00809e-07 12.2413V9C3.00809e-07 8.4477 0.44772 8 1 8C1.55229 8 2 8.4477 2 9V12.2C2 13.0566 2.00078 13.6389 2.03755 14.089C2.07337 14.5274 2.1383 14.7516 2.21799 14.908C2.40973 15.2843 2.7157 15.5903 3.09202 15.782C3.24842 15.8617 3.47262 15.9266 3.91104 15.9625C4.36113 15.9992 4.94342 16 5.8 16H12.2C13.0566 16 13.6389 15.9992 14.089 15.9624C14.5274 15.9266 14.7516 15.8617 14.908 15.782C15.2843 15.5903 15.5903 15.2843 15.782 14.908C15.8617 14.7516 15.9266 14.5274 15.9625 14.089C15.9992 13.6389 16 13.0566 16 12.2V9C16 8.4477 16.4477 8 17 8C17.5523 8 18 8.4477 18 9V12.2411C18 13.0462 18 13.7106 17.9558 14.2518C17.9099 14.8139 17.8113 15.3306 17.564 15.816C17.1805 16.5686 16.5686 17.1805 15.816 17.564C15.3306 17.8113 14.8139 17.9099 14.2518 17.9558C13.7106 18 13.0463 18 12.2413 18H5.7587C4.95373 18 4.28937 18 3.74817 17.9558C3.18608 17.9099 2.66937 17.8113 2.18404 17.564C1.43139 17.1805 0.81947 16.5686 0.43597 15.816C0.18868 15.3306 0.0901202 14.8139 0.0441902 14.2518C-1.97701e-05 13.7106 -9.69919e-06 13.0463 3.00809e-07 12.2413Z" fill="currentColor"/>
<path d="M6.70711 4.70711C6.31658 5.09763 5.68342 5.09763 5.29289 4.70711C4.90237 4.31658 4.90237 3.68342 5.29289 3.29289L8.2929 0.29289C8.6834 -0.09763 9.3166 -0.09763 9.7071 0.29289L12.7071 3.29289C13.0976 3.68342 13.0976 4.31658 12.7071 4.70711C12.3166 5.09763 11.6834 5.09763 11.2929 4.70711L10 3.41421V12C10 12.5523 9.5523 13 9 13C8.4477 13 8 12.5523 8 12V3.41421L6.70711 4.70711Z" fill="currentColor"/>
</svg>
