<?xml version="1.0" encoding="UTF-8"?>
<svg id="a" xmlns="http://www.w3.org/2000/svg" viewBox="0 0 34 20">
    <path id="b" fill="currentColor" class="c" d="m10,0h14c5.52,0,10,4.48,10,10h0c0,5.52-4.48,10-10,10h-14C4.48,20,0,15.52,0,10h0C0,4.48,4.48,0,10,0Zm14.81,13.5s0-.02,0-.03c0-.02,0-.04,0-.05,0-.08-.03-.16-.06-.24,0-.01,0-.03-.01-.04,0,0-.01-.01-.01-.02-.04-.08-.1-.16-.18-.23-.02-.01-.03-.02-.05-.03-.04-.03-.08-.06-.12-.09l-2.04-1.02,2.04-1.02s.01-.01.02-.02c.08-.04.16-.1.22-.17.01-.02.02-.03.03-.05.03-.04.06-.08.09-.12,0-.02,0-.03.01-.05.03-.07.05-.15.06-.23,0-.03.02-.06.02-.08,0-.01,0-.02,0-.03,0-.02,0-.04,0-.06,0-.08-.03-.16-.06-.24,0-.01,0-.03-.01-.04,0,0-.01-.01-.01-.02-.05-.08-.1-.16-.18-.23-.01-.01-.03-.02-.04-.03-.04-.03-.08-.06-.13-.09l-2.04-1.02,2.04-1.02c.28-.14.45-.42.45-.73s-.17-.59-.45-.73l-7-3.5c-.23-.11-.5-.11-.73,0l-7,3.5c-.28.14-.45.42-.45.73s.17.59.45.73l2.04,1.02-2.04,1.02s-.08.06-.12.09c-.02.01-.03.02-.05.03-.07.06-.13.14-.17.22,0,0-.01.01-.02.02,0,.01,0,.03-.01.04-.03.07-.05.15-.06.23,0,.02,0,.04,0,.06,0,.01,0,.02,0,.03,0,.03.02.05.02.08,0,.08.02.16.06.24,0,.02,0,.03.01.05.02.05.06.09.09.13.01.02.02.03.03.05.06.07.14.13.22.18,0,0,.01.01.02.02l2.04,1.02-2.04,1.02s-.08.06-.12.09c-.02.01-.03.02-.05.03-.07.06-.13.14-.17.22,0,0-.01.01-.02.02,0,.01,0,.03-.01.04-.03.07-.05.15-.06.23,0,.02,0,.04,0,.06,0,.01,0,.02,0,.03,0,.03.02.05.02.08,0,.08.02.16.06.24,0,.02,0,.03.01.05.02.05.06.09.09.13.01.02.02.03.03.05.07.07.14.13.23.18,0,0,.01.01.02.01l7,3.5c.11.06.24.09.36.09s.25-.03.36-.09l7-3.5s.01-.01.02-.01c.08-.04.16-.1.22-.18.01-.02.02-.03.03-.05.03-.04.06-.08.09-.12,0-.02,0-.03.01-.05.03-.07.05-.15.06-.23,0-.03.02-.06.02-.08Zm-7.81-9.59l5.18,2.59-5.18,2.59-5.18-2.59,5.18-2.59Zm-.36,6.82c.11.06.24.09.36.09s.25-.03.36-.09l3.14-1.57,1.68.84-5.18,2.59-5.18-2.59,1.68-.84,3.14,1.57Zm.36,5.36l-5.18-2.59,1.68-.84,3.14,1.57c.11.06.24.09.36.09s.25-.03.36-.09l3.14-1.57,1.68.84-5.18,2.59Z"/>
</svg>