<svg viewBox="0 0 24 24" fill="none" xmlns="http://www.w3.org/2000/svg">
<g id="Google G logo 1">
<path id="Vector" d="M22.56 12.25C22.56 11.47 22.49 10.72 22.36 10H12V14.26H17.92C17.66 15.63 16.88 16.79 15.71 17.57V20.34H19.28C21.36 18.42 22.56 15.6 22.56 12.25Z" fill="#4285F4"/>
<path id="Vector_2" d="M11.9999 23.0001C14.9699 23.0001 17.4599 22.0201 19.2799 20.3401L15.7099 17.5701C14.7299 18.2301 13.4799 18.6301 11.9999 18.6301C9.13993 18.6301 6.70993 16.7001 5.83993 14.1001H2.17993V16.9401C3.98993 20.5301 7.69993 23.0001 11.9999 23.0001Z" fill="#34A853"/>
<path id="Vector_3" d="M5.84 14.0898C5.62 13.4298 5.49 12.7298 5.49 11.9998C5.49 11.2698 5.62 10.5698 5.84 9.90982V7.06982H2.18C1.43 8.54982 1 10.2198 1 11.9998C1 13.7798 1.43 15.4498 2.18 16.9298L5.03 14.7098L5.84 14.0898Z" fill="#FBBC05"/>
<path id="Vector_4" d="M11.9999 5.38C13.6199 5.38 15.0599 5.94 16.2099 7.02L19.3599 3.87C17.4499 2.09 14.9699 1 11.9999 1C7.69993 1 3.98993 3.47 2.17993 7.07L5.83993 9.91C6.70993 7.31 9.13993 5.38 11.9999 5.38Z" fill="#EA4335"/>
</g>
</svg>
