<svg viewBox="0 0 41 40" fill="none" xmlns="http://www.w3.org/2000/svg">
<path d="M20.504 14.4441C22.9928 14.4441 25.1306 12.9441 26.084 10.8041C29.2795 12.453 31.6551 15.4619 32.4373 19.0175C32.6084 19.7953 33.2995 20.3241 34.0617 20.3241C34.1817 20.3241 34.3017 20.313 34.424 20.2841C35.3217 20.0864 35.8884 19.1953 35.6906 18.2975C34.604 13.3819 31.1262 9.29526 26.5128 7.35304C26.0395 4.45081 23.5351 2.22192 20.5017 2.22192C17.1306 2.22192 14.3906 4.96192 14.3906 8.33304C14.3906 11.7041 17.1306 14.4441 20.5017 14.4441H20.504Z" fill="currentColor"/>
<path d="M14.251 25.278C13.0065 23.1246 10.6377 22.0202 8.30877 22.2668C8.13766 18.6735 9.55544 15.1135 12.2399 12.658C12.9199 12.038 12.9665 10.9824 12.3465 10.3024C11.7243 9.62463 10.671 9.57574 9.99099 10.198C6.27544 13.5957 4.47544 18.6513 5.09988 23.6157C4.11099 24.4202 3.39099 25.498 3.05322 26.7535C2.63322 28.3291 2.84877 29.978 3.66433 31.3891C4.47988 32.8024 5.79766 33.8157 7.37544 34.238C7.89988 34.378 8.43544 34.4491 8.96655 34.4491C10.0265 34.4491 11.0688 34.1713 12.011 33.6268C14.9265 31.9446 15.9332 28.2002 14.2488 25.2802L14.251 25.278Z" fill="currentColor"/>
<path d="M37.9572 26.753C37.535 25.1774 36.5216 23.8574 35.1105 23.0419C32.195 21.3552 28.4461 22.3619 26.7616 25.2797C25.5172 27.4352 25.7483 30.0352 27.1261 31.9286C24.1039 33.873 20.315 34.4241 16.835 33.3263C15.9527 33.0508 15.0216 33.5374 14.7461 34.413C14.4683 35.2908 14.955 36.2263 15.8327 36.5041C17.3505 36.9841 18.9172 37.2174 20.4772 37.2174C23.8661 37.2174 27.215 36.1041 29.9505 34.0174C30.6283 34.2708 31.3283 34.4441 32.0461 34.4441C32.5772 34.4441 33.1105 34.3752 33.6372 34.233C35.215 33.8108 36.5327 32.7974 37.3483 31.3863C38.1639 29.9752 38.3816 28.3263 37.9594 26.7508L37.9572 26.753Z" fill="currentColor"/>
</svg>
