<svg viewBox="0 0 24 24" fill="none" xmlns="http://www.w3.org/2000/svg">
<path fill-rule="evenodd" clip-rule="evenodd" d="M13.6435 21L10.3579 21C9.27413 21 8.40003 21 7.69213 20.9422C6.96323 20.8826 6.32303 20.7568 5.73073 20.455C4.78993 19.9757 4.02503 19.2108 3.54573 18.2699C3.24393 17.6777 3.11813 17.0375 3.05853 16.3086C3.00073 15.6007 3.00073 14.7266 3.00073 13.6428L3.00073 10.3572C3.00073 9.2734 3.00073 8.3992 3.05853 7.6914C3.11813 6.9625 3.24393 6.3223 3.54573 5.73C4.02503 4.7892 4.78993 4.0243 5.73073 3.545C6.32303 3.2432 6.96323 3.1174 7.69213 3.0578C8.39993 3 9.27413 3 10.3579 3L13.6435 3C14.7273 3 15.6015 3 16.3094 3.0578C17.0382 3.1174 17.6784 3.2432 18.2707 3.545C19.2115 4.0243 19.9764 4.7892 20.4558 5.73C20.7576 6.3223 20.8834 6.9625 20.9429 7.6914C21.0008 8.3993 21.0007 9.2734 21.0007 10.3572L21.0007 13.6428C21.0007 14.7266 21.0008 15.6007 20.9429 16.3086C20.8834 17.0375 20.7576 17.6777 20.4558 18.2699C19.9764 19.2108 19.2115 19.9757 18.2707 20.455C17.6784 20.7568 17.0382 20.8826 16.3094 20.9422C15.6015 21 14.7273 21 13.6435 21ZM16.1465 18.9488C16.7517 18.8994 17.0994 18.8072 17.3627 18.673C17.9272 18.3854 18.3861 17.9265 18.6738 17.362C18.8079 17.0986 18.9001 16.7509 18.9496 16.1458C19 15.5289 19.0007 14.7366 19.0007 13.6L19.0007 10.4C19.0007 9.2634 19 8.4711 18.9496 7.8542C18.9001 7.2491 18.8079 6.9014 18.6738 6.638C18.3861 6.0735 17.9272 5.6146 17.3627 5.327C17.0994 5.1928 16.7517 5.1006 16.1465 5.0512C15.5297 5.0008 14.7373 5 13.6007 5L10.4007 5C9.26413 5 8.47183 5.0008 7.85493 5.0512C7.24983 5.1006 6.90213 5.1928 6.63873 5.327C6.07423 5.6146 5.61533 6.0735 5.32773 6.638C5.19353 6.9014 5.10133 7.2491 5.05193 7.8542C5.00153 8.4711 5.00073 9.2634 5.00073 10.4L5.00073 13.6C5.00073 14.7366 5.00153 15.5289 5.05193 16.1458C5.10133 16.7509 5.19353 17.0986 5.32773 17.362C5.61533 17.9265 6.07423 18.3854 6.63873 18.673C6.90213 18.8072 7.24983 18.8994 7.85493 18.9488C8.47183 18.9992 9.26413 19 10.4007 19L13.6007 19C14.7373 19 15.5297 18.9992 16.1465 18.9488Z" fill="currentColor"/>
<path d="M7.2915 12.7051C7.1967 12.6097 7.125 12.5 7.0766 12.3829L7.2915 12.7051Z" fill="currentColor"/>
<path d="M7.29393 12.7074L11.2936 16.7071C11.6841 17.0976 12.3173 17.0976 12.7078 16.7071C13.0983 16.3166 13.0983 15.6834 12.7078 15.2929L10.4149 13L16.0007 13C16.553 13 17.0007 12.5523 17.0007 12C17.0007 11.4477 16.553 11 16.0007 11L10.4149 11L12.7078 8.7071C13.0983 8.3166 13.0983 7.6834 12.7078 7.2929C12.3173 6.9024 11.6841 6.9024 11.2936 7.2929L7.29433 11.2922C7.29193 11.2946 7.28953 11.297 7.28713 11.2994C7.19443 11.3938 7.12433 11.502 7.07663 11.6172C7.02773 11.7351 7.00073 11.8644 7.00073 12C7.00073 12.1356 7.02773 12.2649 7.07663 12.3828" fill="currentColor"/>
</svg>
