<svg viewBox="0 0 19 18" fill="none" xmlns="http://www.w3.org/2000/svg">
<path d="M3.91992 15.75C3.91992 15.3358 4.25571 15 4.66992 15H15.1699C15.5841 15 15.9199 15.3358 15.9199 15.75C15.9199 16.1642 15.5841 16.5 15.1699 16.5H4.66992C4.25571 16.5 3.91992 16.1642 3.91992 15.75Z" fill="currentColor"/>
<path d="M9.87462 4.01511C9.72822 3.86866 9.49077 3.86866 9.3443 4.01511L6.43527 6.92409C6.28883 7.07054 6.28883 7.30798 6.43527 7.45443L9.9656 10.9847C10.1121 11.1312 10.3494 11.1312 10.4959 10.9847L13.4049 8.07577C13.5514 7.9293 13.5514 7.69185 13.4049 7.54545L9.87462 4.01511Z" fill="currentColor"/>
<path d="M8.90087 12.3741C9.02402 12.3398 9.04697 12.1875 8.9566 12.0972L5.32288 8.46343C5.2325 8.37305 5.08024 8.396 5.04601 8.51915L3.95296 12.4513C3.78104 13.0698 4.35028 13.639 4.96878 13.467L8.90087 12.3741Z" fill="currentColor"/>
<path d="M11.2014 2.1579C12.0801 1.27923 13.5047 1.27924 14.3833 2.15791L15.262 3.03659C16.1407 3.91528 16.1407 5.3399 15.262 6.21858L14.9957 6.4849C14.8492 6.63134 14.6118 6.63134 14.4654 6.4849L10.9351 2.95456C10.7886 2.80812 10.7886 2.57068 10.9351 2.42424L11.2014 2.1579Z" fill="currentColor"/>
</svg>
