<svg viewBox="0 0 17 14" xmlns="http://www.w3.org/2000/svg">
    <path d="M11.157 9.263c-.639 0-1.174-.516-1.174-1.151 0-.637.535-1.169 1.174-1.169.638 0 1.155.532 1.155 1.169 0 .635-.516 1.15-1.155 1.15m.163 2.127c-.565.561-1.449.834-2.703.834-1.255 0-2.138-.273-2.701-.834a.313.313 0 0 1 .443-.442c.44.439 1.178.653 2.258.653s1.82-.214 2.26-.653a.313.313 0 0 1 .443.442M4.923 8.112c0-.636.535-1.169 1.173-1.169s1.155.533 1.155 1.169c0 .635-.517 1.15-1.155 1.15s-1.173-.515-1.173-1.15M17 6.846a1.897 1.897 0 0 0-3.185-1.39c-1.253-.813-2.931-1.338-4.79-1.41L10.051.928l2.692.631c0 .859.701 1.556 1.563 1.556s1.563-.699 1.563-1.557a1.563 1.563 0 0 0-3.001-.61L9.634.188 8.368 4.04c-1.928.036-3.676.559-4.976 1.39A1.897 1.897 0 0 0 .236 6.847c0 .663.347 1.27.902 1.61C.633 11.433 4.151 14 8.583 14c4.414 0 7.92-2.546 7.452-5.506.594-.331.965-.953.965-1.648" fill="currentColor" fill-rule="nonzero"/>
</svg>
