<svg viewBox="0 0 22 19" fill="none" xmlns="http://www.w3.org/2000/svg">
<path d="M9 1.1665H2.33333C1.59695 1.1665 1 1.76346 1 2.49984V7.1665C1 7.90288 1.59695 8.49984 2.33333 8.49984H9C9.73638 8.49984 10.3333 7.90288 10.3333 7.1665V2.49984C10.3333 1.76346 9.73638 1.1665 9 1.1665Z" stroke="currentColor" stroke-width="2" stroke-linecap="round" stroke-linejoin="round"/>
<path d="M18.9998 3.83301H16.3331C15.5967 3.83301 14.9998 4.42996 14.9998 5.16634V13.833C14.9998 14.5694 15.5967 15.1663 16.3331 15.1663H18.9998C19.7361 15.1663 20.3331 14.5694 20.3331 13.833V5.16634C20.3331 4.42996 19.7361 3.83301 18.9998 3.83301Z" stroke="currentColor" stroke-width="2" stroke-linecap="round" stroke-linejoin="round"/>
<path d="M9.6665 12.4995H4.99984C4.26346 12.4995 3.6665 13.0965 3.6665 13.8328V16.4995C3.6665 17.2359 4.26346 17.8328 4.99984 17.8328H9.6665C10.4029 17.8328 10.9998 17.2359 10.9998 16.4995V13.8328C10.9998 13.0965 10.4029 12.4995 9.6665 12.4995Z" stroke="currentColor" stroke-width="2" stroke-linecap="round" stroke-linejoin="round"/>
</svg>
