<svg viewBox="0 0 40 40" fill="none" xmlns="http://www.w3.org/2000/svg">
<path fill-rule="evenodd" clip-rule="evenodd" d="M24.1667 8.33333C28.3088 8.33333 31.6667 11.6912 31.6667 15.8333C31.6667 19.7447 28.6713 22.9583 24.8505 23.3027L25.1497 26.6225C30.673 26.1248 35 21.4853 35 15.8333C35 9.85025 30.1498 5 24.1667 5C18.5147 5 13.8752 9.3271 13.3774 14.8504L16.6973 15.1496C17.0417 11.3287 20.2553 8.33333 24.1667 8.33333Z" fill="currentColor"/>
<path fill-rule="evenodd" clip-rule="evenodd" d="M15.8333 16.6668C19.9755 16.6668 23.3333 20.0247 23.3333 24.1668C23.3333 28.309 19.9755 31.6668 15.8333 31.6668C11.6912 31.6668 8.33333 28.309 8.33333 24.1668C8.33333 20.0247 11.6912 16.6668 15.8333 16.6668ZM26.6667 24.1668C26.6667 18.1837 21.8165 13.3335 15.8333 13.3335C9.85025 13.3335 5 18.1837 5 24.1668C5 30.15 9.85025 35.0002 15.8333 35.0002C21.8165 35.0002 26.6667 30.15 26.6667 24.1668Z" fill="currentColor"/>
</svg>
