<svg viewBox="0 0 16 20" fill="none" xmlns="http://www.w3.org/2000/svg">
<path fill-rule="evenodd" clip-rule="evenodd" d="M3 6V16C3 17.1046 3.89543 18 5 18H11C12.1046 18 13 17.1046 13 16V6H15V16C15 18.2091 13.2091 20 11 20H5C2.79086 20 1 18.2091 1 16V6H3Z" fill="currentColor"/>
<path d="M6 9C5.44772 9 5 9.4477 5 10V14C5 14.5523 5.44772 15 6 15C6.5523 15 7 14.5523 7 14V10C7 9.4477 6.5523 9 6 9Z" fill="currentColor"/>
<path d="M10 9C9.4477 9 9 9.4477 9 10V14C9 14.5523 9.4477 15 10 15C10.5523 15 11 14.5523 11 14V10C11 9.4477 10.5523 9 10 9Z" fill="currentColor"/>
<path fill-rule="evenodd" clip-rule="evenodd" d="M4 4V3C4 1.34315 5.34315 0 7 0H9C10.6569 0 12 1.34315 12 3V4H15C15.5523 4 16 4.44772 16 5C16 5.55228 15.5523 6 15 6H1C0.44772 6 0 5.55228 0 5C0 4.44772 0.44772 4 1 4H4ZM6 3C6 2.44772 6.4477 2 7 2H9C9.5523 2 10 2.44772 10 3V4H6V3Z" fill="currentColor"/>
</svg>
