<svg viewBox="0 0 41 40" fill="none" xmlns="http://www.w3.org/2000/svg">
<path d="M38.2767 18.3333H34.9434C34.9434 16.8022 33.6967 15.5555 32.1656 15.5555H8.8323C7.30119 15.5555 6.05452 16.8022 6.05452 18.3333H2.72119C2.72119 14.9622 5.46119 12.2222 8.8323 12.2222H32.1656C35.5367 12.2222 38.2767 14.9622 38.2767 18.3333Z" fill="currentColor"/>
<path d="M32.1656 5.55542H8.8323C5.46119 5.55542 2.72119 8.29542 2.72119 11.6665V28.3332C2.72119 31.7043 5.46119 34.4443 8.8323 34.4443H32.1656C35.5367 34.4443 38.2767 31.7043 38.2767 28.3332V11.6665C38.2767 8.29542 35.5367 5.55542 32.1656 5.55542ZM8.8323 8.88875H32.1656C33.6967 8.88875 34.9434 10.1354 34.9434 11.6665V18.8888H28.8323C26.6879 18.8888 24.9434 20.6332 24.9434 22.7776V23.8888C24.9434 24.1954 24.6945 24.4443 24.3879 24.4443H16.6101C16.3034 24.4443 16.0545 24.1954 16.0545 23.8888V22.7776C16.0545 20.6332 14.3101 18.8888 12.1656 18.8888H6.05452V11.6665C6.05452 10.1354 7.30119 8.88875 8.8323 8.88875Z" fill="currentColor"/>
</svg>
