<svg viewBox="0 0 22 19" fill="none" xmlns="http://www.w3.org/2000/svg">
<path d="M15.3333 5.16667V1.16667" stroke="currentColor" stroke-width="2" stroke-linecap="round" stroke-linejoin="round"/>
<path d="M15.3333 9.16667V17.8333" stroke="currentColor" stroke-width="2" stroke-linecap="round" stroke-linejoin="round"/>
<path d="M14.1333 8.76667L11.6666 11.8333L8.33325 8.5L5.33325 13.8333L1.33325 8.77733" stroke="currentColor" stroke-width="2" stroke-linecap="round" stroke-linejoin="round"/>
<path d="M15.3333 9.16667C16.4378 9.16667 17.3333 8.27124 17.3333 7.16667C17.3333 6.0621 16.4378 5.16667 15.3333 5.16667C14.2287 5.16667 13.3333 6.0621 13.3333 7.16667C13.3333 8.27124 14.2287 9.16667 15.3333 9.16667Z" stroke="currentColor" stroke-width="2" stroke-linecap="round" stroke-linejoin="round"/>
<path d="M3.99996 17.8333L18 17.8333C19.4727 17.8333 20.6666 16.6394 20.6666 15.1667V3.83334C20.6666 2.36059 19.4727 1.16668 18 1.16668L3.99996 1.16668C2.5272 1.16668 1.33329 2.36059 1.33329 3.83334V15.1667C1.33329 16.6394 2.5272 17.8333 3.99996 17.8333Z" stroke="currentColor" stroke-width="2" stroke-linecap="round" stroke-linejoin="round"/>
</svg>
